<mxfile host="65bd71144e">
    <diagram id="NQbdevP67i4PQxkOO86s" name="Page-1">
        <mxGraphModel dx="594" dy="561" grid="1" gridSize="10" guides="1" tooltips="1" connect="1" arrows="1" fold="1" page="1" pageScale="1" pageWidth="827" pageHeight="1169" math="0" shadow="0">
            <root>
                <mxCell id="0"/>
                <mxCell id="1" parent="0"/>
                <mxCell id="148" value="" style="pointerEvents=1;verticalLabelPosition=bottom;shadow=0;dashed=0;align=center;html=1;verticalAlign=top;shape=mxgraph.electrical.miscellaneous.batteryStack;" parent="1" vertex="1">
                    <mxGeometry x="80" y="60" width="100" height="60" as="geometry"/>
                </mxCell>
                <mxCell id="149" value="&lt;font style=&quot;font-size: 18px&quot;&gt;-&lt;/font&gt;" style="text;html=1;resizable=0;autosize=1;align=center;verticalAlign=middle;points=[];fillColor=none;strokeColor=none;rounded=0;fontFamily=Helvetica;fontSize=11;fontColor=default;" parent="1" vertex="1">
                    <mxGeometry x="60" y="60" width="20" height="20" as="geometry"/>
                </mxCell>
                <mxCell id="150" value="&lt;font style=&quot;font-size: 18px&quot;&gt;+&lt;/font&gt;" style="text;html=1;resizable=0;autosize=1;align=center;verticalAlign=middle;points=[];fillColor=none;strokeColor=none;rounded=0;fontFamily=Helvetica;fontSize=11;fontColor=default;" parent="1" vertex="1">
                    <mxGeometry x="170" y="60" width="30" height="20" as="geometry"/>
                </mxCell>
                <mxCell id="151" value="&lt;font style=&quot;font-size: 18px&quot;&gt;5 V&lt;br&gt;&lt;/font&gt;" style="text;html=1;resizable=0;autosize=1;align=center;verticalAlign=middle;points=[];fillColor=none;strokeColor=none;rounded=0;fontFamily=Helvetica;fontSize=11;fontColor=default;" parent="1" vertex="1">
                    <mxGeometry x="110" y="30" width="40" height="20" as="geometry"/>
                </mxCell>
                <mxCell id="152" value="&lt;font style=&quot;font-size: 18px&quot;&gt;220&amp;nbsp;&lt;/font&gt;&lt;span style=&quot;color: rgb(32 , 33 , 36) ; font-family: &amp;#34;arial&amp;#34; , sans-serif ; font-size: 16px ; text-align: left ; background-color: rgb(255 , 255 , 255)&quot;&gt;Î©&lt;/span&gt;" style="text;html=1;resizable=0;autosize=1;align=center;verticalAlign=middle;points=[];fillColor=none;strokeColor=none;rounded=0;fontFamily=Helvetica;fontSize=11;fontColor=default;" parent="1" vertex="1">
                    <mxGeometry x="205" y="390" width="60" height="20" as="geometry"/>
                </mxCell>
                <mxCell id="153" style="edgeStyle=orthogonalEdgeStyle;rounded=0;orthogonalLoop=1;jettySize=auto;html=1;exitX=1;exitY=0.115;exitDx=0;exitDy=0;exitPerimeter=0;endArrow=none;endFill=0;fillColor=#f8cecc;strokeColor=#b85450;startArrow=none;" parent="1" source="156" edge="1">
                    <mxGeometry relative="1" as="geometry">
                        <mxPoint x="190" y="90" as="targetPoint"/>
                    </mxGeometry>
                </mxCell>
                <mxCell id="154" style="edgeStyle=none;html=1;exitX=0;exitY=0.885;exitDx=0;exitDy=0;exitPerimeter=0;entryX=0;entryY=0.25;entryDx=0;entryDy=0;entryPerimeter=0;endArrow=none;endFill=0;" parent="1" source="155" target="171" edge="1">
                    <mxGeometry relative="1" as="geometry">
                        <mxPoint x="300" y="140" as="targetPoint"/>
                    </mxGeometry>
                </mxCell>
                <mxCell id="155" value="" style="pointerEvents=1;verticalLabelPosition=bottom;shadow=0;dashed=0;align=center;html=1;verticalAlign=top;shape=mxgraph.electrical.electro-mechanical.2-way_switch;rotation=-180;" parent="1" vertex="1">
                    <mxGeometry x="215" y="127" width="75" height="26" as="geometry"/>
                </mxCell>
                <mxCell id="157" value="rr" style="verticalLabelPosition=bottom;shadow=0;dashed=0;align=center;html=1;verticalAlign=top;shape=mxgraph.electrical.opto_electronics.led_2;pointerEvents=1;flipH=1;rotation=0;" parent="1" vertex="1">
                    <mxGeometry x="460" y="335" width="100" height="70" as="geometry"/>
                </mxCell>
                <mxCell id="158" value="Output&lt;br style=&quot;font-size: 18px;&quot;&gt;" style="text;html=1;resizable=0;autosize=1;align=center;verticalAlign=middle;points=[];fillColor=none;strokeColor=none;rounded=0;fontSize=18;" parent="1" vertex="1">
                    <mxGeometry x="475" y="310" width="70" height="30" as="geometry"/>
                </mxCell>
                <mxCell id="159" value="Input A" style="text;html=1;resizable=0;autosize=1;align=center;verticalAlign=middle;points=[];fillColor=none;strokeColor=none;rounded=0;fontSize=18;" parent="1" vertex="1">
                    <mxGeometry x="240" y="90" width="70" height="30" as="geometry"/>
                </mxCell>
                <mxCell id="160" value="Emmanuel&amp;nbsp;&lt;br&gt;TEJ3M&lt;br&gt;Unit #4-13" style="text;html=1;resizable=0;autosize=1;align=center;verticalAlign=middle;points=[];fillColor=none;strokeColor=none;rounded=0;fontSize=18;" parent="1" vertex="1">
                    <mxGeometry x="339" y="265" width="110" height="70" as="geometry"/>
                </mxCell>
                <mxCell id="161" style="edgeStyle=orthogonalEdgeStyle;rounded=0;orthogonalLoop=1;jettySize=auto;html=1;exitX=1;exitY=0.115;exitDx=0;exitDy=0;exitPerimeter=0;endArrow=none;endFill=0;fillColor=#f8cecc;strokeColor=#b85450;" parent="1" source="165" edge="1">
                    <mxGeometry relative="1" as="geometry">
                        <mxPoint x="192" y="90" as="targetPoint"/>
                        <Array as="points">
                            <mxPoint x="175" y="275"/>
                            <mxPoint x="175" y="90"/>
                        </Array>
                    </mxGeometry>
                </mxCell>
                <mxCell id="162" style="edgeStyle=orthogonalEdgeStyle;rounded=0;orthogonalLoop=1;jettySize=auto;html=1;exitX=1;exitY=0.885;exitDx=0;exitDy=0;exitPerimeter=0;endArrow=none;endFill=0;entryX=1;entryY=0.885;entryDx=0;entryDy=0;entryPerimeter=0;" parent="1" source="165" target="155" edge="1">
                    <mxGeometry relative="1" as="geometry">
                        <mxPoint x="210" y="213" as="targetPoint"/>
                    </mxGeometry>
                </mxCell>
                <mxCell id="163" style="edgeStyle=orthogonalEdgeStyle;rounded=0;orthogonalLoop=1;jettySize=auto;html=1;exitX=1;exitY=0.885;exitDx=0;exitDy=0;exitPerimeter=0;endArrow=none;endFill=0;entryX=0;entryY=0.5;entryDx=0;entryDy=0;entryPerimeter=0;" parent="1" source="165" target="168" edge="1">
                    <mxGeometry relative="1" as="geometry">
                        <mxPoint x="180" y="375" as="targetPoint"/>
                        <Array as="points">
                            <mxPoint x="180" y="255"/>
                            <mxPoint x="180" y="375"/>
                        </Array>
                    </mxGeometry>
                </mxCell>
                <mxCell id="164" style="edgeStyle=none;html=1;exitX=0;exitY=0.885;exitDx=0;exitDy=0;exitPerimeter=0;entryX=0;entryY=0.75;entryDx=0;entryDy=0;entryPerimeter=0;endArrow=none;endFill=0;" parent="1" source="165" target="171" edge="1">
                    <mxGeometry relative="1" as="geometry"/>
                </mxCell>
                <mxCell id="165" value="" style="pointerEvents=1;verticalLabelPosition=bottom;shadow=0;dashed=0;align=center;html=1;verticalAlign=top;shape=mxgraph.electrical.electro-mechanical.2-way_switch;rotation=-180;" parent="1" vertex="1">
                    <mxGeometry x="242.5" y="252" width="75" height="26" as="geometry"/>
                </mxCell>
                <mxCell id="166" style="edgeStyle=orthogonalEdgeStyle;rounded=0;orthogonalLoop=1;jettySize=auto;html=1;entryX=0;entryY=0.5;entryDx=0;entryDy=0;endArrow=none;endFill=0;" parent="1" source="168" target="148" edge="1">
                    <mxGeometry relative="1" as="geometry"/>
                </mxCell>
                <mxCell id="167" style="edgeStyle=none;html=1;exitX=1;exitY=0.5;exitDx=0;exitDy=0;exitPerimeter=0;entryX=1;entryY=0.57;entryDx=0;entryDy=0;entryPerimeter=0;endArrow=none;endFill=0;" parent="1" source="168" target="157" edge="1">
                    <mxGeometry relative="1" as="geometry"/>
                </mxCell>
                <mxCell id="168" value="" style="pointerEvents=1;verticalLabelPosition=bottom;shadow=0;dashed=0;align=center;html=1;verticalAlign=top;shape=mxgraph.electrical.resistors.resistor_2;" parent="1" vertex="1">
                    <mxGeometry x="185" y="365" width="100" height="20" as="geometry"/>
                </mxCell>
                <mxCell id="169" value="Input B" style="text;html=1;resizable=0;autosize=1;align=center;verticalAlign=middle;points=[];fillColor=none;strokeColor=none;rounded=0;fontSize=18;" parent="1" vertex="1">
                    <mxGeometry x="247.5" y="215" width="70" height="30" as="geometry"/>
                </mxCell>
                <mxCell id="170" style="edgeStyle=none;html=1;exitX=1;exitY=0.5;exitDx=0;exitDy=0;exitPerimeter=0;entryX=0;entryY=0.5;entryDx=0;entryDy=0;entryPerimeter=0;endArrow=none;endFill=0;" parent="1" source="171" target="173" edge="1">
                    <mxGeometry relative="1" as="geometry"/>
                </mxCell>
                <mxCell id="171" value="" style="verticalLabelPosition=bottom;shadow=0;dashed=0;align=center;html=1;verticalAlign=top;shape=mxgraph.electrical.logic_gates.logic_gate;operation=and;" parent="1" vertex="1">
                    <mxGeometry x="344" y="170" width="100" height="60" as="geometry"/>
                </mxCell>
                <mxCell id="172" style="edgeStyle=none;html=1;exitX=1;exitY=0.5;exitDx=0;exitDy=0;exitPerimeter=0;entryX=0;entryY=0.57;entryDx=0;entryDy=0;entryPerimeter=0;endArrow=none;endFill=0;" parent="1" source="173" target="157" edge="1">
                    <mxGeometry relative="1" as="geometry"/>
                </mxCell>
                <mxCell id="173" value="" style="verticalLabelPosition=bottom;shadow=0;dashed=0;align=center;html=1;verticalAlign=top;shape=mxgraph.electrical.logic_gates.inverter_2" parent="1" vertex="1">
                    <mxGeometry x="460" y="170" width="100" height="60" as="geometry"/>
                </mxCell>
                <mxCell id="174" value="" style="shape=image;verticalLabelPosition=bottom;labelBackgroundColor=#ffffff;verticalAlign=top;aspect=fixed;imageAspect=0;image=data:image/png,iVBORw0KGgoAAAANSUhEUgAAAPIAAADXCAIAAACva5t2AAAgAElEQVR4nO2dZ3Bb15n3z8UFLnolOiCABEkQLGIVRVk96sWSoliKvM5Kk9hjy551JhvveLPezGZndt5MMs56EieT3c3a63VslURdsorVrN5IUSTFDhYIIAkShQDR+8X74cxiOFSxJIICBJ3fJwK8OPe5B3+cds99/lgymQQIRG5ByXQACET6QbJG5CBI1ogcBMkakYMgWSNyECRrRA6CZI3IQZCsETkIkjUiB0GyRuQgSNaIHATJGpGDIFkjchAka0QOQk1LKZ999llaykEgHsiSJUsKCwsf/3gsLfutMQzTaDQ8Hm/6RSEQk0kkEoODg5988sn27dsf/1Ppaa0BAL/5zW82bNiQrtIQCIjP51u4cOGTfiptsiYIgslkpqs0BAISi8UolCeeAaIpIyIHQbJG5CBI1ogcBMkakYMgWSNyECRrRA6CZI3IQdK2bn0/8Xg8EolEIhEOh0Oj0TAMAwCQJBkMBqlUKkEQqfXIRCKROpJKpcIjk8lkKBSKxWI0Go3JZKY+Ho1G4/E4i8WCB4TD4UQiAcuhUCh0Op3NZuM4/sCQkslkLBbzer3wIxiG0Wi0ySd9ICRJxmKxSCTCZrMpFMojjnyiyonFYslkkslkRqPRRCKB4zhBELDSCIJI1dj9lxCNRkOhUCQSmfIvBoPBZDIJgph+eFOA1R6LxWANPDCqeDweCoUYDMbDIn+WzKCszWbz2bNnjx8//o//+I/V1dU8Hi+RSPh8vv/+7/8uLCxctGiRVCqFR46NjZ0/f/7UqVPvv/9+SUkJm80GAESj0f3797e0tFRWVm7dupXL5QIAxsfHr1271tXVtXPnTr/fv3fv3qNHj1qtVliOVCpdvnz5O++8o1arH6jsQCDQ3t7+s5/9zGw2AwA4HE5tbe17771XVlZGp9MfdiEej6elpeXrr79+++231Wp1WnRjNpsbGxu9Xu/f/u3f3rhxw2w263S6uXPndnd3X7hwYd68efPmzaPRaPd/MBaLXbx4cc+ePRcvXpz8PpVKXbNmzY4dO2prax/4wengcrlu3LjR2tr69ttvC4VCKnWqbEKh0MDAwN69e9evX19bW5vxG3MzKOtYLOZwOG7evHn58mW5XM7j8ZLJZCKR8Hg8fr8/1cTG4/GBgYHBwUGBQGAymVQqFZR1Mpn0+/3Nzc0ej6eysnLOnDkAgEQiEQgEJiYmSJKEDVtRUdH27dslEgmGYX6/32q1/vGPf3zjjTe0Wi2DwZgcz8jIyI0bN06ePLl+/XqFQsFisSKRiMViuXz5cjKZrKysvP/bgpAkGQqFXC5XLBZLV+VIpdJ58+bBvigcDvt8vnA4nEwmI5GIx+OBfz/wg1Qqdfbs2W+++eb69esdDse5c+c4HM7ChQslEolKpdLpdA/rqaYDh8Oprq7WarVcLveBrTVszl0u1yMif5bMoKwBAHQ6XaPR9Pb29vb2SiQS2OJOwefzORwOHMfnzJnT09Oj1+tFIlGqvZFIJD6f79atWzqdjs/nT/ksjUbTaDRr167VarUUCsXtdl+7du3gwYMtLS18Pl8ul6eOjEajRqOxublZJpNt2LBBp9MxGIxAIHD37t0jR46YzebCwkIejxeJRK5fv97X1zcxMcFgMKqqqgwGg8lkunr1akdHx9dffw3P5fP5bt++bTQaQ6GQXq9fsGBBqucBAEQiEZPJ5PV6VSqVXC73eDxXrlzR6XRarZYgCJvNNjg4KJFIYrGY3++nUCjnzp0bGBhwOBypCxwYGHC5XFarValULliwQC6Xp35yFApFqVQqlcpEImE2my0WS15e3rp162bNmgUAcLvdd+7c6e/vD4VCEomkoqKCx+P19fVduXIlkUhwOJzi4uK5c+fy+fyenh6n0+nz+UZHR91ut0ajqaysLC4uBgDcvXu3ra3NZrNxudzq6urKykrYZDidzsLCwkQi0dvbe/fu3Xv37gEAGhoaSkpKfD7fhQsXOjo6xGIxh8OpqKgIBAKXL18eGRmh0+mFhYULFy6k0+ler3dwcNBoNIbD4by8vPLycq1WOxO/w5mVNZ/PX7RoUTQaNZlMSqVy9uzZ9x/jcDjC4bBara6urv7zn/9ss9k0Gk3qC66urvZ4PBaLpaurq6am5tGnEwqFpaWl1dXVXV1dlZWVMpksNcjz+Xwmk8ntdr/zzjsFBQWwIWcwGOXl5Z2dnRwOBw4Nu7u7z58/39nZ6Xa7MQwbGBjYtm3b6Ohof3+/1Wrt7OycO3cul8vt6ek5ceLE4OCgy+XS6/UYhq1cuZLJZMKWLBaLDQ4Odnd3z507VyQSjY6O/vWvf12+fDmXy+VyuV1dXY2NjSUlJRMTEzabbeXKld3d3SaTic1mDw8Pq1Qqh8MRCARIkuzo6OByuQwGY/78+RKJ5HEq3Ol0Xr58+fTp0xKJxGAwCAQCHMdPnz596dIlDMMoFEpFRYVQKKyurm5tbW1pafF4PMFg0Gw2C4VCr9crFouTyeTFixdv3rxps9l4PJ7dbpfL5XQ6va2trbGxsaysLJFI3L59+/z58xaLJR6P+3w+CoVCo9GMRqPVau3t7a2qqpJIJK2trceOHbPZbFQqtbi4WCAQlJaWOp3Oq1evHj9+HIYnk8k0Gs3jy+nxmVlZU6lUqVQ6d+7c9vb2u3fvwsZgChaLBQBQXFxcVFRUWFjo8/ncbndK1jKZrLi4OBwOX7hwQafTfetcBFbfqVOnAoFAPB5PtfpOp3NiYoLJZM6aNYsgCDjFiUajGIZt27YNzl9HR0f37dsHRzVqtbqzs/Ojjz4aGxubPXs2k8nk8/n/8A//kJ+f39zcfOXKFY1G84tf/MLr9R46dGjXrl0lJSX5+flwTEkQhF6v7+npCYVCgUDA7/fDfiAUClGpVKfTqdfr8/LyfD4fi8WqrKx89913BwYGSkpKFi1a1NbWdv369bVr177xxht0Ov3jjz++ffu2RCJ5TFkDACKRCI/H+8UvfqHRaEZHR8+dO+d0Ovfu3SsWiy9dunTjxo2bN2+Wl5cDADwej1gs/ulPf+rxeD766COj0djb2xuPx8fGxv7u7/6uvr7earV+/vnndrtdJBKlym9ra3O73Rs2bNi8ebPH49m9e7fL5Zo3b97OnTspFMrWrVurq6s7Ozs///zzl19+edWqVePj41999dWnn3763nvvAQCi0SiTyfznf/5nnU43c0PwmZU1AADDsPz8fIvFMjo62tTUVFVVlfoXnNQPDQ2xWCy1Wk2j0SorK41G48jISH5+fuowhUIBADh58mRbW9t0ftxsNlsikTAYDAzDxsfHz5w58+WXX8K5444dO1599VWVSvXee+8RBMFisQAAfD6fx+NNmX4Fg8GhoSGbzfa9732PyWSy2ezS0lKbzTYxMTF5QYbP5/t8vrGxMYfDEYvFFi9e7HQ6rVarSCQym83Lli17RM9bUVFRVlYmlUrhiN9utz/RZTIYDJFIBNtplUq1ZcuWl19+WSwW4zjO5/NFIlEqTplMVlhYKBAI6HR6cXHxlDExjuOzZs368Y9/zOVy3W73/SeiUCg8Hu+1116bMicJh8PhcJjP59fW1kokEhaLVVVV1dzcPDY2xuPxUuE9bCaTFmZc1gAANptdU1PT2NjY3Nys0+lS1ZpIJMbHxzs6OoxG44EDB+h0utvt5nA4bDa7trY21TCzWCy5XL5s2bKuri74qUecKxqNut1ukiQf+C+fzxeLxeAiIJywu1yu06dP02i0aDQKJ6lffPHFvXv34Jqj0+mcso4G50YDAwMfffSRUCikUCg2my2RSCxcuNBgMMBjcBzn8XhisRjDsLGxsbGxMbVaPTExEQgEKBSKz+cTCATRaPRhl6BQKMRiMZPJjEQiLBbrSbdlslgsiUSSGhHZbLbz58/fvn2bJMnx8XEmk7l48WJ4pEAgkEqlOI7TaDQGgxGPx5lMplwu1+v1Bw4c+OSTT+Ry+fe+973Zs2dP/hFWVFQEg8HGxsZjx44BAF599dWGhobJq0ORSMTr9UYiEQaDQaVS2Wy2VColCCKRSJAkyWQypVLpU1zXE/EsZI3jeFFRkc1mu3jx4q1bt3w+H3w/Eom0t7dHo1GxWAxnkyKRKBQKTUxMjIyMqNXq1MclEsnSpUv37NnT29t7/3rtZEKhkN1uZzAYdDp9csWx2Wwqler1ep1OJ5PJZDKZBoNBr9dHIhG73S4QCBKJhMvl+vrrr0dGRnAc53A4wWBwYmLigZfDZrPZbDaXy8VxXCgU5uXlqVSq1FeLYRicJ3m9XqvV6na7Kysr2Wy2x+MJhUJ0Op3H43k8noddAovFmhL8E0Gj0VgsFlyJHxsb6+joaG9vZzKZOI5Ho9HJxd6/RZ4gCLlc3tDQ4Pf7+/r64vH41atXuVwuXJuCKBSK2bNn+3y+QCAQjUbv3r3L5XKnDC8xDEu1Ssn/A76kUqmp8J7uAh+HZyFrAACPx8vPz5fL5WfOnIF3Q0iS9Pl8165dmzVr1ne+8536+np45OHDhy0WS09Pj1KpTNUFnU7XarUKhaKvr8/tdufl5T3wLLB9tVgss2bN4vF4k9sYkUgkl8u7urqampo4HA7slBOJhNvtdjgcXC43kUg4HI6zZ89u3bp1yZIlQqGwp6fnd7/73ZRBCNR0SUnJpk2bZs+eTaPRXC6Xx+NRKBRT1hO1Wm1bW9vQ0BBBEAKBIC8vz2QyRaNRtVrN4/ECgUA66/chjIyMWCwWuVz+05/+lMVi3bhxo7Gx8RHHx2Ixl8slEonefPNNgiAGBgZ+//vfw/pMHeN0OgUCwZYtW3bs2OHxeP7rv/7LaDROXnRiMBhcLpdGo/n9/mg0GggExsbGEokElUqdiUWPB/Lsbp4XFBQsWbLEbrdbLBav1xuLxZxOZ0dHh1KphKNniEgkCgaDfX19kUgkJWsKhcJkMtetW0ehUIxGYyAQmDwQJP8Pq9Xa1NTU0tLS0NAgFosnn53FYpWWls6aNeu3v/1tW1ub1+slSdLj8Vy4cOH48eMmkwkehmEYbFqcTmdjY+Pg4GAwGEwVAm8KymQyFov1zTffeL1eh8Oxb9++999/v62tbfKRAAAOh+N0OuFiFp1Oz8/Pj8fjDoejurr6/hs6U5q09AJL9vl8bW1tra2tjzgS9ldffPGF0WgkSRLDMA6Hw+fzJwd88uTJgwcPtra2wmIZDAaPx2Oz2al7w7AT8Hq9d+7csdvtZrO5ra1NpVIpFIpndpvmGbXWAACCILRa7euvvw4fUw8EAiMjIyRJymSyyQvSsGHo7Ozs6+uLxWKTe3alUrlixYpkMpkSUCAQOHXq1LFjxwiCwDCMy+VWVVX9/Oc/Ly0thdO+yeTn52/btq2srGzfvn2//OUvA4EAg8HQaDT/9m//Vl9fr1QqA4HA6tWr//d///fDDz80GAxLliwxGAyw12YwGHa7/aOPPtqxY4der1+6dOnevXu///3vezye4uLiLVu2VFVVTTmjSCQSiUQSiQRO+eFSHVyKmdwDYBgmkUj27Nlz6dIll8tVUFCQxjovKCgYHBw8d+7c8uXLDQZDWVlZdXW10+kMhUIPnH4IhcKioqLPP//8gw8+sNvtUqn0lVdeyc/PnzxgWLp06cmTJz/88EOr1ZpIJLZv315RUcHn8/1+fzAY/PLLL+12+/z5899+++1du3bt3r2bIIjKysp33nlHqVSOjo6m8eoewQzKWi6Xz58/PxQKwXEznDjPnz+fzWYrFAq5XM5ms99+++3y8vLJP2KZTLZ69erx8XG1Wr18+XIajZZa2yIIora2ViwWwzIZDMaGDRtKS0tTg3U2m63Vamtqajgczv1jUwaDoVKp4IB4bGwsHA4TBCGTyerr6+GYBMfxlStXCoVCl8sFF1arqqrkcjm8xbBz504AgEajEQqFZWVlW7dunTNnDlxxr6qquv9OE4PBaGhoKCoqgssvYrF4yZIloVBIJBJRKBSZTLZw4cJIJAJH4du3bw+FQsXFxVKpdOPGjUqlkkqlMpnMurq6kpKSyV18CgqFIhaLN2/eTKfThUIhfFMqlc6fPz8YDMKNGXw+f+7cuXQ63WazicVirVbLYrHgwmJ9fX00GhWJRHBjzOLFi0mSVCqVXC533bp1er1+YmKCz+fX19fn5eUlk8k5c+bA5AICgWDp0qVyudzpdAIA5s+fr1arGQyGTCbbsWNHJBLRarVSqZTD4QAAxsbGYHNWXFxMEAS8t1peXk6n02d0bJ22hAqHDx/+7ne/O/2iEIjJeL3euXPn/vznP3+ihApoYyoiB0GyRuQgSNaIHATJGpGDIFkjchAka0QOgmSNyEGQrBE5CJI1IgdBskbkIEjWiBwEyRqRgyBZI3IQJGtEDoJkjchBkKwROQiSNSIHQbJG5CBI1ogcBMkakYMgWSNyECRrRA6CZI3IQdKZ/iYej4+PjxuNxpKSEqFQmEYHk0Ag0NfXx2azZTIZj8d74DEwgz+Hw9Hr9Q/M9eZwOBwOh1gsFolEk7PQ+v1+mA4YpmhJV8wAAKvV6nK5uFzuZC8bmJe1vb3dYrGk0lMJhcLi4mK9Xn9/AP39/RQKJS8v734zhskkk8lAINDZ2Xnv3j2Y4A/mzpyStG0K0KGqvb1dqVTKZLIpaQQfh0AgMDQ0FIlEDAYDzK31pCXMBOmUdSwW6+/v/+yzz958882Kioo0ytrlch0/flylUi1atOh+WUP/rkuXLnV2dhYUFKjVag6Hc3/9DgwMNDU1zZkzB2ZPnVz4mTNnAAAqlSq9LlXd3d1tbW06nU4mk6VkTZKkw+HYvXv3lStXoHcMAEAmk61atYrH492fwPv69es0Gq22tvYRsk4kEsFg8O7du8eOHbt165bL5QIALF++/OWXX66trRUIBA+7qHg87nQ6d+3atWLFioULFz6FrN1u98WLF10ul0ajyQaPL0guDEJisZjFYrHZbIFAIBwOOxyOR+fAzga4XO6rr7761VdfNTY2NjY2vvPOO+Fw+Jtvvnm60gKBwJ07d379618XFBR8+eWXsMyysrLTp08fO3bsEbm0c5WZysEXj8dv3bp18+ZNLpd77Ngxl8tVUlKyceNG6E91+fLl4eFhNpu9b98+sVi8YcOG1atX8/n8gYGBxsZGrVY7f/58AMCtW7esViuFQrHb7Z9++imdTrdYLN///vdLS0snnwvaHcEUlRiGXbt2bbKH0OMD3REOHz7sdrvtdvv58+cBACtXrtywYUNhYWFfX9/NmzcTiUR/f39/f//s2bOhn5jJZGpubhaLxQ0NDWw2u7Oz88aNG/PmzfN4PPv37z979qxMJiNJctGiRVOMMnAcp9PpsIEsKiqy2+0OhwOaMj5Rm5dIJMbGxi5cuLBp0ybonwR7gDVr1sCk3SaTKT8///DhwxwOp6qqSq1WBwKBQ4cOwdzyZ8+ePX36dE9Pj9Vqrauru379ukaj6ejouHv3Lp1Of/311xsaGuLxeEtLS3d392uvvcbj8RwOR0dHx+Dg4Pr16/fv33/06FGPxxMIBHbu3KlQKNJun/cUzJSsSZJ0u91GoxFmMfT5fE6n88KFC/X19YFAoLe3t7u7u7Kycu3atQ6Hw2KxNDc3L1y40Ov1Dg0NsdlsmIXW5XKNjIwoFIr8/PzS0lI+n6/X61NpFFMngomDdTqdWCy22Wzt7e0+n49Opz9FNuVEIjEyMmI2m7lc7urVqx0OR29vr1qtFggETqfz4MGDFRUV+fn5EokEeobQ6XS/3z88PAwHQslk0uPxmEym0tJSkUhUWFg4OjqqUqk0Gs2jc+D6fL5kMgm9AZ405lAo5HA4RkZGVq9eDcdR8H2lUimVSmFVq9Xq4eFhWIEAgHg8PjQ0JBaL1Wq1wWCYNWtWRUVFQUEBSZJGo3FwcFCtVr/00ktOp/PUqVNwPuNwOAYHB6FnA8x1DyckOp2uqKhoYmKiqqrqgRk9M8LMJgKmUChsNnvHjh3JZPLkyZNXr151uVyptPh6vX79+vVdXV3ffPNNZ2dnVVXVA/NcikSi0tLSBQsWqFSq+vr6KelDY7GYx+NxOBxz584tLi7GcfzOnTtOp5PL5d6fC/gxodFo5eXlmzZtMpvNf/zjHx0Oh8/ngyYV0P+Oy+WePHmyq6uroKDgYV+kRqOpra3FcVyn01VUVEwZtsZiMaPReOzYMZiCfmhoiMPhzJ49+yk6mWg0ChOk83i8yaapOI5DB5nR0dEHpv3FMEwsFkskkmvXri1durSmpgYmQY3H4/PmzausrOzr6/vDH/5gMpkemJ4YwzAGg1FTUzM6OupyuVauXMnn818IWbNYrPLyci6XS6VSlUplqhdmsVj5+fm1tbVUKlWn07W2tprN5od5vjyaYDBotVonJiY8Hs/4+LjH44nH4/fu3YMGJU8Xtlwu12q1TCZToVCoVCo4SaVSqRUVFTU1NUqlEsOw+vr61tbW8fHxh63MPJpwOHzjxo3z589DHdfW1q5fv14mkyUSiXT5TwMAuFwuj8d7olqFBpn5+fkikUitVpeUlIyPjz/M/iFrmVlZEwShUCjub4GgWQ6Px5v+9+f1eltbW/fs2bN7927om8FgMGBX8Pimb1PgcrmTLdsgFApFKpVC7694PD7NsDkczrZt2zZv3qxSqQAAQ0NDV65c+d3vfvfBBx/weLwZdcF6NDCNfMbdnafJjFcfbHumjC6gSWEgEODz+cFg0Ov1hsPhKR+EC2GhUOgRhYfD4cHBwZ6eng8++ECn07HZ7Hg87na7b926ZbFYHrHI/WgmO/pMjsflckG7x3g87vV6/X7/FH1D+83x8fFvzRoOe3BopwTfEYvFg4ODExMTU9YfvxUWi5WXl8dkMm02m0KhSI1DYrHY0NBQKBSqqqqaPDYgSdLr9Xq93geuGCaTSbfbHYlEEolEKBSC464px/h8vkdYOmUDmRkJQT+u4eFhkiTHxsaguwD003Y6nXa7HRpJ9ff3p5wGHojH47FardAcY+3atWvWrFmzZs2SJUtwHB8ZGYEjxXQBTZHNZrPP5wuFQn19fTwej8/nQ/M7s9kMncHMZrPRaHzSFcZoNBqJREiSfIqlX+ipUFlZefHixfb2dr/fD99vaWkZGBig0WjFxcVQ1i6Xy2azwfkiNC++vzSSJKE7cDAYHB8fHxsbEwgEbDYb2k3BT42NjVmt1icK8hmTsc7O4/G0tLTYbLahoSEqlWowGKAZEpVK7enpOXnyZF5entfrhdZp0BKpt7cXehYKBAJYiN1uhyM/aGCcOlIulw8NDVksFo1Gk64OHa4A9PX1Xbp0KRaL9fX1zZ49W6vVxuNxoVDY2Nh45swZoVA4NDSUasIJggiFQm1tbWVlZRqNZvKsMRaLmUymc+fOwbuAbrfbZrNptVo+n/+kiyHwHuTChQt37dp1+/Zth8MBq8JoNOI4XlJSAptbpVLZ0dFx6dIlt9vtdruhpjEMw3GcSqWaTCaZTEalUpPJpMvlun79ekdHh8PhgN43UqmUy+Umk8kTJ06UlJSMjo4Gg0E4UIHVOz4+fvfu3draWjabnQ2zxnTKGsMwgiCgMRSFQqHT6VwuF67CQqvC1KhRIBAwGIzW1tZf/epXZWVlP/zhD5cvX85isfR6/aJFi3bt2vXrX/96zpw5dXV18IMMBkOtVu/duzcWi8lkspT5udPpTCQSVVVVcMoPAKBQKHB1Fppyh8NhaGLyCOByTTKZhHGy2WxoHAivCL6EnpwNDQ3j4+N/+tOfnE7n+vXrly9frlar4/H4ggULrl279pvf/KaqqspgMKxbt47FYmEYJhQKw+HwoUOHtFotj8dLreFAJd28efPo0aPwHaVS+d3vfvcHP/jB042aWCxWRUXFu++++8knn+zevRs6D23fvv0HP/hByrZ46dKlw8PDBw4c2LNnz1tvvaXRaOAKN7R9uX79ejgcrquro1AoEonk4MGDXV1der3+3//930tLS9lsdl1dndVq/fDDD1Uq1ZIlS3Q6HXQ7hxaVVqt1z549arUaem8/xSWkl3R6x2zatAn68LHZbNg1QytVeJ3hcDgSicAqOHz4cDgc3rZtG5VKJQiCw+FAHQAAgsEg9LGk0+nwgwRBwGbP6/XS6XQOh5OquHA4DNcKUwZqAIBkMhkOh0OhELR5TjUeN2/ehDfPoflnKnh45xkAAAvx+/3wt0Sj0UiS9Pv9FAolHA7fvXv3xIkTq1evLisrg30CXOGBK9YejycajRIEAZeNmUwmnFnCy+Hz+dDwE54RDsFDoVBqrILjOIvF4nA49/ctX3zxBbx5XlJS8uhvIR6PQ7stWCz0I07VVSKRgP8lSRL6UNJoNCaTiWGYz+eD1WixWP7nf/5nxYoVxcXFcHIsFAphwwSvxev14jgOZ/ywHPiVhUIhaImN43h6758/nXdMmltrOp2emrIwGIzJ3S70roWHAQAIghAKhfC+4ORCWCzWAxfmYKsw5c0pp0iFkTrX44Dj+GSfrsl/Q3cyAEAsFoMlczgcmUw2xYGOIIgHrrrAH2RqyJSCSqUKhcIp95WmD5VKFQgE958OAj3PHzhNhG/G43H4o4KXI5VKpxTO4/Ee2JlwOJxv7RKfMRkYW/N4vPr6epIkJ987eAYolcq6urrJ9+EeHwaDodVqly1bplKpnvHYsaKigkKh3L/gmHbg8GPVqlWFhYVPveSfJWRA1gKBYMGCBc/+vBqN5v79cY8Jk8ksLCwsLCxMb0iPQ21t7bM5EYVCkcvlGzdufDanm1EyP2lFINIOkjUiB0GyRuQgSNaIHATJGpGDIFkjchAka0QOgmSNyEHSeTvGZrP19vb29fUBAAoKCkQikd/v7+3tBQBotVqxWBwMBnt6epLJ5KxZs6RSaTgc7unpSSQSKpVKLpdHo9Genp5YLKZQKJRKZTwe7+npiUQiMplMrVaTJNnb2xsMBiUSCbyr0tvb6/f7RSIRfCSpr6/P6zacs4wAABEySURBVPUKBAJ402RgYGBiYoLH4xUXFwMATCYTzCICd1aYzWan08lisQwGA4ZhQ0NDdrudwWAYDAa4qXVsbIwgCIPBQKPRRkdHrVYr3GZIp9NtNtvw8DCFQjEYDEwmEz6LCQAwGAxsNnt8fPzevXsAAL1ez+Vy3W734OAgAKCoqIjP53s8nv7+fgCATqcTCoU+n89oNAIA8vPz8/Ly4FOeyWRSo9FIJJJQKNTb25uqn0gk0tvbG4vFlEqlQqGYUj9w32woFErVT09PTyAQyMvLy8/PBwAYjUafzycUCnU6HQCgv7/f4/Hw+fyioiIAwODgoNvt5nK58GHHe/fujY+Ps9lsg8EAALBYLA6Hg8lkGgwGCoUyPDxss9nodLperydJ0mazOZ1OgiCqq6sjkcjo6KjdbsdxvKamJh6Pj46O2mw2DMOqq6sBAGNjY3AnVk1NjU6ne9it/mmSTllbrdazZ88eO3YMALBy5cri4uKxsbFDhw4BAJYuXVpWVuZ0Og8cOECS5MKFCysrK+Gz2dFodN68ebW1tYFA4MCBA4FAoK6urqGhIRKJHDhwwOPxVFVVLViwgCTJ/fv3j4+Pl5eXL1myBABw6NChsbExvV6/YsUKAMCxY8eGh4d1Ot2aNWsAACdPnrx3796sWbM2bNgAADhz5kx/f79Codi8eTMA4MKFC93d3RKJZMuWLRiGXblypb29XSAQbN26lUaj3bx5886dOxwOZ8uWLSwW6/bt242NjQwGY8uWLTwer62t7dq1a1QqdcuWLSKRqLOz89KlSwCALVu2wEdi4SPrmzZtUqlUAwMDp0+fBgCsX79eq9VaLJbjx48DAFavXl1YWGi1Wo8cOQIAWLZsmcFgsNvtBw4cAAAsXry4oqLC7Xbv378/Ho+/9NJLNTU1Pp/vwIEDoVCovr6+vr4+HA7v37/f5/PV1NS89NJL8Xh8//79bre7oqJi8eLFAIADBw7Y7XaDwbBs2TIAwJEjR6xWa1FR0apVqwAAJ06cMJvNWq12/fr1AIDTp08PDAyoVKpNmzYBAM6fP9/b2yuTyV555RUAwOXLlzs6OkQi0datW3Ecv379emtrK5fL3bx5cywWa21t7e7uZrPZO3fu9Hg8jY2N7e3tBEHs3LkzHA43NTW1trZiGLZz585kMtnc3Hz79m0AwFtvvfWIHSzTJJ07+DZu3JhIJOD2MbiTK5lMwpcUCoVCoTz6JQAA7lROvUwkEslk8tEv4Y7hJ31JkiR8uP3xX4L/21ucegmvccrL1EVN52Ua6+fpquvx6yeZTCaTyQfWz7e+fJztfpnfwQdrcMpGoid6OWVb5sy9nFGmUwMvQv08A9CUEZGDIFkjchAka0QOgmSNyEGQrBE5CJI1IgdBskbkIEjWiBwEyRqRg2TdvSWXy3Xx4sVz58653e5Vq1YtX778qR8XhySTyWAweOXKFSaTWV9fn/ZUAQMDA+fOnTtz5oxCoVi7du38+fOnnwCkv7/farWyWKyampqnSOQ+uZyBgQEAwIoVK6ZTznNHFskaJrm7du1aT08PTBEGdyMRBDElVfuTEovFBgcHuVxuKstZurBarW1tbQMDAzB/e3t7O5VKXbp06TRToLjd7qGhIT6fP50dO4ODg0eOHOnv76+uriZJ8oWSdRYNQmCC2lu3bhEE8dZbb/3Lv/yLWCzu7u7u6+t7inTuz4b+/n6TyaRWq//f//t/r7/+eiQSuXnzpsvlSssGsqcmEomYTKbr1683NjYODQ1lMJJMkV2ttdfrpdFoEokEZkAtLS2FX0wsFnvGKaAek4mJCSqVWlJSQqfTlUolj8eDm7OfzgUmXbhcrv379zudzrq6uuc9AfvTkUWyhq01TLJIo9Fg9v9wOOxyuWCmyUwHOJVoNDoxMUGSJEzmSxCESCRyuVwOhyOzrbVEInnjjTcSiURXV1d3d3cGI8kUWSTrRCLhcDhg6k64DRem5UwkElk4CIEzAZfL5fP5qFQqTCIMNxBP34JjmlCpVGhyYDabs8T/8xmTRWNrDMPS6Ab0DMD+j0wHgphKFrXWFApFLBbTaDT4pAYAIBqNwnzp2ZDgfgow/69IJCJJEroVkiQJrRmzIW/5C04WyQUmk4bpwaPRKEmSdrudTqeLRKLsFArMXQ39bgAA0WjU5XJFIhGJRIKa8MySRbLGMAzK2m63Q3eSrq4uPp+v0WiyU9YAAKFQmHoCfGRkxOfzcTgcpVKZhd3LC0V2DUJ4PN7ixYtv37798ccfx2IxgUCwYsUKvV6ftY1fcXGx2+2+dOnSu+++SxCEVqttaGgQCoVZG/ALQhbJGnp01NfXQ2uViYmJurq6iooKuHyWnUDnuImJiUuXLgkEgrq6upqamuzpW8RiMUz08aL1Hlkka4hQKFy3bt26desyHcjjotVqt2/f/kSP+z8zCgoKHmhXnvO8WD9ixAtC1rXWaQfac23evBnH8fu9wrITg8Gg1WphgphMx/JckvuyBgBQqVSFQpHpKJ4AaJWd6SieY9AgBJGDZF1rDZdBfD5fPB6H/pbTX1ggSTLlZDwTawLJZDIej3u9XgaDwWQyp3+KSCQSi8WgV+901gojkUgkEgEAcLncF2rNMetaa4fD8ec//3nz5s2LFi367W9/C7PoTodkMglzjZ46dSoQCKQlyClEo1Gz2fzxxx9fuHAhFApNv8Curq5Tp05duXIl5R79dHR2dh46dOjgwYMZ3331jMmi1pokyWAwePTo0UAg8JOf/ITD4TQ1NTU1NeE4DnNUPzVwtx1BEDOxX9Tv93d2dv7nf/6nx+MpLy9Pyyni8Xg0GoWO1E/N7du3P/vss+Hh4edotTRdZJGs4WMEVqtVIpF85zvfEQqFdrt9aGhIJpMVFBRkZ0rP8fHx5ubma9eu5eXlhcPhLLnr4fV679y5c/fu3Xg8/kAz9pwnK74GCEmSHo+HSqWKRCKhUEin03U6nd/vt1qt02y3Zo5oNOr1egEA69atk8lkWfLbi8fjNpuNwWDMmTMHegC8aGTF1wCBsqZQKAwGg0ajYRiWl5cXiUQ8Hk80Gs3Oh5cUCsWWLVtefvlls9k8JRd1BhGJRNu2bQMANDU1NTc3ZzqcDJBFrXUikbDZbOFwONOBIJ57skjWFApFKBRmzz4hxPNLFskax3G4pTMajcIHZHw+H41GY7FYWTJmRTwvZJGsMQzj8/nwvobf74/H48PDwywWSyqVoiYc8URkkazhYwTwGSqTyWS327u7u0UikVarzZ7ZGOK5ILtkzeVyt2zZQqFQ3n///fXr14dCoblz58KN8AjE45NdY1YcxwsKCjZu3FhWVhYMBvV6fWFhIYPByHRc3wKNRlMoFK+99ppEIsmqaFM2tS/aBtfskjUAgMVilZeXl5eXZzqQJwDHcR6PV1tbm+lAppKXlwfz4LxoZJ2sZwIcx2UyGZvNfl4aLQ6HIxaLORzOC7XtLo3kvqwxDONyudC7+3mhtLS0tLQ001E8x2TRlBGBSBdI1ogcJEsHIT6fb2BggM1mKxQKDocznaKSyWQsFuvv7ycIYiYSRDmdzt7e3p6eHh6PV1ZWVlBQMH0fD4fD4fF4CIJQq9XT2ezqcDhgIrWSkpIs2TT7bMhGWQcCgY6Ojr/85S+VlZXLly+fpqwBAMFg8OLFi1wuN+03LIPBYGdn58GDBy9evCiVStetW7dmzZqSkpJpzk3v3btnNBr5fP508p75fL6bN2+2t7eLRKKioqIXStbZeKmtra2ffvrp559/7vF4Mh3Lt9De3t7c3CyVSi9duvSrX/3K7XYfPXrU5/NlNm075MaNG//xH/9x+PDhTAeSAbKotYajha+++spoNMrl8tdee43H42U6qG/B7XZTKBSDwcDj8TQaDZfLdbvdVquVx+NlcG3O6XQeP37cZDLNnj37xdx3kEWyhmnbCwsLpVKpz+draWnJ8o178Xh8YmIimUzCoQKHwxEIBB6Px2az6fX6DHb6DAajtLRUq9WOj4/bbLZMhZFBsks3VCoVPqQ0ODjY0tKS6XC+hWg06na7I5EIm83GMIxKpbJYLBzHZ+j59seHw+E0NDQAAJqamuCU8UUjG8fWzwVwyOTz+YLBYKZjQUwlu1rr5wiYtjgvL+95uSH/QoFa66cHmmzgOA79RaGfXTQazcvLQ3s5MguS9dMDH74kSXJwcDAWi42Pj3s8HrhJFck6s6BByLRQqVQWi6W/v//o0aPQelSv1yNLpIyTpbLGcZzD4cCFhUzH8ihKSkoikUh3d/ff//3f5+fn/+hHP1q9enX2ZNGGDzgDAF60n1mWylqlUr3++us4jmehJ/QUDAbDP/3TP/34xz+mUqkcDier0vSUlZXB9IVZ3jqknSyVNZVKfV7ylhMEQRCEUCjMdCAPAMaW6SgyQJbKOr3Q6fTa2lo6nf68fMcKhYJGozEYjBdqf1IayX1ZYxjGZDLnzZuX6UCeALVarVarMx3FcwxqDBA5CJI1IgdBskbkIFk6tvZ4PEajkc1mq9Xqae66hre1e3t7CYLQ6XQzMWtMJBJer7ezs1OhUGg0mulvcbbZbBMTE9BE/SlmjSRJRqPRGzdumEwmKpVaUlJSU1MDU4ZPM7DnhWyUtc/na2tr+8tf/lJbW7tixYrpP0wQCoWuXr3K5XKVSmXaZR2Px10uV2Nj44kTJ1asWCGTyaYva4vFAh/6mjVr1pPKOplMBoPBvr6+EydOdHR00Gi0OXPmCAQCjUaTVWvqM0rWDUJIkmxpafnss8927doF/SuyGeh309TU9K//+q9GozEajWY6IpBIJEZGRv70pz8VFxf/4Q9/+OUvf4nj+F//+le73Z7p0J4dWSRr6Me1f//+y5cvq9XqH/7wh3w+P9NBfQvDw8OHDh3at2/fm2++WVBQkA3r4olEIhQK+f1+jUYjFArz8vIKCws7OzttNhv0aHwRyKJBCHzApKKiIj8/3+PxQOu6TAf1LfB4vDlz5shkMqlU2tvbmw13T6LRqN/vTyQSQqEQep/m5eUFg0GPxxOJRLJ/M0JayCJZAwBwHIdJJQcHB5uamjIdzrfD5/Orq6sNBoPZbM6SH2EkEvF6vZFIhEaj4TiO4zjsQ6LR6ItjOpr51gWRXhKJRDgcjkQiJElmOpaMgWSda9DpdIFAwOPxsqT3yAhI1rkGQRAwD5bf74cO036/HwDA4XBekIE1QLLOPWBeBwaDMTo66vV6JyYmhoaGNBpNXl7eiyPr7JoyIqYPlUoVCoVz5841mUxut5skSafTuWTJkuzxrn4GZGlrTaPRRCIRj8d7LnJtYRhGEIRYLGaz2Rlf46NQKHK5/G/+5m9CodCePXuOHDkiEAjWrl37QrltZOnPV6VS/ehHP6JQKM9FAwNTDP/kJz+hUqnZEDCO43w+/2c/+9l7772HYRh8IuHF2RACslbWFAolqyyzHg2GYTiOZ9WOCwzDpp9m+/klS2WdXhgMRkNDA0EQz8ucSaVSMZlMOp2e8SHNc0ruyxrDMAaDUVdXl+lAngClUqlUKjMdxXMMagwQOQiSNSIHQbJG5CBI1ogcBMkakYMgWSNyECRrRA6CZI3IQZCsETkIkjUiB0GyRuQgSNaIHATJGpGDIFkjchAka0QOgmSNyEGQrBE5CJI1IgdBskbkIEjWiBwEyRqRgyBZI3IQJGtEDpK2PCGNjY3pKgqBSAF9cJ70U1gymZz+uVUq1fQLQSAexu9///tXXnnl8Y9Pj6xHRkamXwgC8TCEQuETpRRMj6wRiKwCTRkROQiSNSIHQbJG5CBI1ogcBMkakYMgWSNyECRrRA6CZI3IQZCsETkIkjUiB0GyRuQgSNaIHATJGpGDIFkjchAka0QOgmSNyEGQrBE5CJI1Igf5/yvHrhFikoqpAAAAAElFTkSuQmCC;" parent="1" vertex="1">
                    <mxGeometry x="434.03" y="30" width="151.95" height="135" as="geometry"/>
                </mxCell>
                <mxCell id="175" value="&lt;font style=&quot;font-size: 23px&quot;&gt;NAND GATE&lt;/font&gt;" style="text;html=1;resizable=0;autosize=1;align=center;verticalAlign=middle;points=[];fillColor=none;strokeColor=none;rounded=0;" vertex="1" parent="1">
                    <mxGeometry x="230" y="470" width="150" height="20" as="geometry"/>
                </mxCell>
                <mxCell id="177" value="" style="edgeStyle=none;html=1;fontSize=23;" edge="1" parent="1" source="176" target="169">
                    <mxGeometry relative="1" as="geometry"/>
                </mxCell>
                <mxCell id="176" value="Switch&lt;br&gt;" style="text;html=1;resizable=0;autosize=1;align=center;verticalAlign=middle;points=[];fillColor=none;strokeColor=none;rounded=0;" vertex="1" parent="1">
                    <mxGeometry x="205" y="258" width="50" height="20" as="geometry"/>
                </mxCell>
                <mxCell id="156" value="Switch&lt;br&gt;" style="text;html=1;resizable=0;autosize=1;align=center;verticalAlign=middle;points=[];fillColor=none;strokeColor=none;rounded=0;" parent="1" vertex="1">
                    <mxGeometry x="190" y="133" width="50" height="20" as="geometry"/>
                </mxCell>
                <mxCell id="178" value="" style="edgeStyle=orthogonalEdgeStyle;rounded=0;orthogonalLoop=1;jettySize=auto;html=1;exitX=1;exitY=0.115;exitDx=0;exitDy=0;exitPerimeter=0;endArrow=none;endFill=0;fillColor=#f8cecc;strokeColor=#b85450;" edge="1" parent="1" source="155" target="156">
                    <mxGeometry relative="1" as="geometry">
                        <mxPoint x="190" y="90" as="targetPoint"/>
                        <mxPoint x="215" y="150.01" as="sourcePoint"/>
                    </mxGeometry>
                </mxCell>
            </root>
        </mxGraphModel>
    </diagram>
</mxfile>